HIERARCHY
ROOT Hips
{
	OFFSET 0.000000 0.000000 0.000000
	CHANNELS 6 Xposition Yposition Zposition Zrotation Yrotation Xrotation 
	JOINT LHipJoint
	{
		OFFSET 0.000000 0.000000 0.000000
		CHANNELS 3 Zrotation Yrotation Xrotation
		JOINT LeftUpLeg
		{
			OFFSET 1.363060 -1.794630 0.839290
			CHANNELS 3 Zrotation Yrotation Xrotation
			JOINT LeftLeg
			{
				OFFSET 2.448110 -6.726130 0.000000
				CHANNELS 3 Zrotation Yrotation Xrotation
				JOINT LeftFoot
				{
					OFFSET 2.562200 -7.039590 0.000000
					CHANNELS 3 Zrotation Yrotation Xrotation
					JOINT LeftToeBase
					{
						OFFSET 0.157640 -0.433110 2.322550
						CHANNELS 3 Zrotation Yrotation Xrotation
						End Site
						{
							OFFSET 0.000000 0.000000 0.000000
						}
					}
				}
			}
		}
	}
	JOINT RHipJoint
	{
		OFFSET 0.000000 0.000000 0.000000
		CHANNELS 3 Zrotation Yrotation Xrotation
		JOINT RightUpLeg
		{
			OFFSET -1.305520 -1.794630 0.839290
			CHANNELS 3 Zrotation Yrotation Xrotation
			JOINT RightLeg
			{
				OFFSET -2.542530 -6.985550 0.000000
				CHANNELS 3 Zrotation Yrotation Xrotation
				JOINT RightFoot
				{
					OFFSET -2.568260 -7.056230 0.000000
					CHANNELS 3 Zrotation Yrotation Xrotation
					JOINT RightToeBase
					{
						OFFSET -0.164730 -0.452590 2.363150
						CHANNELS 3 Zrotation Yrotation Xrotation
						End Site
						{
							OFFSET 0.000000 0.000000 0.000000
						}
					}
				}
			}
		}
	}
	JOINT LowerBack
	{
		OFFSET 0.000000 0.000000 0.000000
		CHANNELS 3 Zrotation Yrotation Xrotation
		JOINT Spine
		{
			OFFSET 0.028270 2.035590 -0.193380
			CHANNELS 3 Zrotation Yrotation Xrotation
			JOINT Spine1
			{
				OFFSET 0.056720 2.048850 -0.042750
				CHANNELS 3 Zrotation Yrotation Xrotation
				JOINT Neck
				{
					OFFSET 0.000000 0.000000 0.000000
					CHANNELS 3 Zrotation Yrotation Xrotation
					JOINT Neck1
					{
						OFFSET -0.054170 1.746240 0.172020
						CHANNELS 3 Zrotation Yrotation Xrotation
						JOINT Head
						{
							OFFSET 0.104070 1.761360 -0.123970
							CHANNELS 3 Zrotation Yrotation Xrotation
							End Site
							{
								OFFSET 0.000000 0.000000 0.000000
							}
						}
					}
				}
				JOINT LeftShoulder
				{
					OFFSET 0.000000 0.000000 0.000000
					CHANNELS 3 Zrotation Yrotation Xrotation
					JOINT LeftArm
					{
						OFFSET 3.362410 1.200890 -0.311210
						CHANNELS 3 Zrotation Yrotation Xrotation
						JOINT LeftForeArm
						{
							OFFSET 4.983000 -0.000000 -0.000000
							CHANNELS 3 Zrotation Yrotation Xrotation
							JOINT LeftHand
							{
								OFFSET 3.483560 -0.000000 -0.000000
								CHANNELS 3 Zrotation Yrotation Xrotation
								JOINT LeftFingerBase
								{
									OFFSET 0.000000 0.000000 0.000000
									CHANNELS 3 Zrotation Yrotation Xrotation
									JOINT LeftHandIndex1
									{
										OFFSET 0.715260 -0.000000 -0.000000
										CHANNELS 3 Zrotation Yrotation Xrotation
										End Site
										{
											OFFSET 0.000000 0.000000 0.000000
										}
									}
								}
								JOINT LThumb
								{
									OFFSET 0.000000 0.000000 0.000000
									CHANNELS 3 Zrotation Yrotation Xrotation
									End Site
									{
										OFFSET 0.000000 0.000000 0.000000
									}
								}
							}
						}
					}
				}
				JOINT RightShoulder
				{
					OFFSET 0.000000 0.000000 0.000000
					CHANNELS 3 Zrotation Yrotation Xrotation
					JOINT RightArm
					{
						OFFSET -3.136600 1.374050 -0.404650
						CHANNELS 3 Zrotation Yrotation Xrotation
						JOINT RightForeArm
						{
							OFFSET -5.241900 -0.000000 -0.000000
							CHANNELS 3 Zrotation Yrotation Xrotation
							JOINT RightHand
							{
								OFFSET -3.444170 -0.000000 -0.000000
								CHANNELS 3 Zrotation Yrotation Xrotation
								JOINT RightFingerBase
								{
									OFFSET 0.000000 0.000000 0.000000
									CHANNELS 3 Zrotation Yrotation Xrotation
									JOINT RightHandIndex1
									{
										OFFSET -0.622530 -0.000000 -0.000000
										CHANNELS 3 Zrotation Yrotation Xrotation
										End Site
										{
											OFFSET 0.000000 0.000000 0.000000
										}
									}
								}
								JOINT RThumb
								{
									OFFSET 0.000000 0.000000 0.000000
									CHANNELS 3 Zrotation Yrotation Xrotation
									End Site
									{
										OFFSET 0.000000 0.000000 0.000000
									}
								}
							}
						}
					}
				}
			}
		}
	}
}
MOTION
Frames: 7
Frame Time: 0.008333
25.517641 16.046484 1.895855 163.954257 -82.344563 -150.437997 -9.439227 -0.317007 3.073140 -12.265885 -3.345172 -50.442143 -1.005050 2.167705 48.962041 2.113240 8.694587 -14.675713 -1.020300 0.000000 -16.649000 10.478095 -5.119130 0.597200 0.595457 -4.154944 9.669470 1.327424 -1.956749 22.217886 0.824421 10.617507 6.940017 2.290100 0.000000 -85.795000 -8.567484 2.115575 -5.257660 -2.562207 2.615672 -4.251226 -5.393394 2.477838 -0.429474 7.453724 -2.942772 -8.777773 -2.413853 -0.172158 -0.360234 0.000000 0.000000 0.000000 -3.287880 16.673682 2.784218 -41.928404 17.982354 4.335655 -5.710476 -2.060522 -0.021017 2.135111 6.158885 0.125535 -0.197439 -0.024050 -0.000000 0.000000 0.000000 0.000000 0.000000 0.000000 0.000000 7.732861 4.956545 0.898930 49.423813 40.554214 22.501584 0.731489 69.717674 -0.011455 -2.000600 7.852561 -0.146057 0.020078 -0.476192 -0.000000 0.000000 0.000000 0.000000 0.000000 0.000000 0.000000 
25.338297 16.039401 1.911866 162.813213 -82.185237 -149.619921 -9.408046 -0.245489 2.930506 -12.781484 -3.180457 -49.515300 -1.032415 2.167338 49.593432 2.194512 8.942451 -15.848895 -1.282000 -0.000000 -16.387999 10.708757 -5.178215 0.502865 -0.271515 -4.695472 8.364313 1.032665 -2.257613 25.573740 0.736104 11.292352 9.386672 2.942300 -0.000000 -87.662501 -8.730338 2.120124 -5.053293 -2.613566 2.633837 -4.235003 -5.506554 2.498438 -0.498870 7.621438 -2.729730 -8.771475 -2.529282 -0.181000 -0.367902 0.000000 0.000000 0.000000 -3.665361 16.590241 2.806504 -42.426167 16.385660 3.256980 -5.660179 -0.856886 -0.019920 2.801690 6.015043 0.157044 -0.188576 -0.011275 -0.000000 0.000000 0.000000 0.000000 0.000000 0.000000 0.000000 8.257970 5.256514 0.908799 50.458840 38.990331 22.689695 0.777255 69.123475 -0.011938 -2.230641 7.851130 -0.163203 0.027803 -0.469854 -0.000000 0.000000 0.000000 0.000000 0.000000 0.000000 0.000000 
25.162764 16.032659 1.927913 161.397903 -82.036467 -148.524828 -9.355299 -0.164643 2.784268 -13.356650 -3.032038 -48.529079 -1.070213 2.157580 50.116290 2.265916 9.127522 -16.982891 -1.541900 -0.000000 -16.198500 10.975887 -5.201459 0.401301 -1.193595 -5.308795 6.882318 0.722408 -2.530987 29.128380 0.599755 11.856205 11.901167 3.649800 0.000000 -88.251100 -8.902214 2.105758 -4.825638 -2.665135 2.633558 -4.215949 -5.621431 2.500345 -0.575865 7.788582 -2.507620 -8.751989 -2.651195 -0.190450 -0.372806 0.000000 0.000000 0.000000 -4.032244 16.435644 2.843724 -43.018104 14.793414 2.278534 -5.601526 0.089805 -0.019481 3.459614 6.006018 0.190455 -0.178526 0.001923 -0.000000 0.000000 0.000000 0.000000 0.000000 0.000000 0.000000 8.814376 5.556039 0.915577 51.535057 37.359736 22.800838 0.823631 68.419340 -0.012337 -2.439561 7.859013 -0.178856 0.034454 -0.462999 -0.000000 0.000000 0.000000 0.000000 0.000000 0.000000 0.000000 
24.991276 16.026360 1.943816 159.754717 -81.896868 -147.192104 -9.281333 -0.073215 2.637788 -13.979207 -2.904326 -47.495540 -1.115511 2.140818 50.534097 2.329180 9.263516 -18.054004 -1.792600 0.000000 -16.061700 11.267917 -5.179583 0.291885 -2.133719 -5.959416 5.266002 0.412828 -2.772426 32.817102 0.419250 12.177286 14.360339 4.325900 0.000000 -87.447501 -9.080672 2.058978 -4.576465 -2.715785 2.600520 -4.196171 -5.740232 2.468529 -0.666864 7.966962 -2.288512 -8.726245 -2.774834 -0.200083 -0.376172 0.000000 0.000000 0.000000 -4.403514 16.177110 2.920058 -43.686867 13.812375 1.538388 -5.542638 -0.532130 -0.021111 4.085731 6.654582 0.246474 -0.168016 0.014057 -0.000000 0.000000 0.000000 0.000000 0.000000 0.000000 0.000000 9.409772 5.869318 0.928260 52.656366 35.692294 22.829855 0.874356 67.573023 -0.012491 -2.612527 7.887231 -0.192314 0.040276 -0.455710 -0.000000 0.000000 0.000000 0.000000 0.000000 0.000000 0.000000 
24.823363 16.020858 1.959826 158.018889 -81.776165 -145.758832 -9.193197 0.027213 2.495320 -14.616506 -2.788319 -46.425228 -1.164737 2.118704 50.856233 2.384535 9.356126 -19.050581 -2.028601 -0.000000 -15.959500 11.566809 -5.113437 0.176144 -3.031879 -6.610281 3.565039 0.119386 -2.985104 36.576490 0.204995 12.108812 16.615036 4.846300 0.000000 -85.356000 -9.243699 2.000891 -4.312434 -2.760991 2.555029 -4.171960 -5.855603 2.423831 -0.757320 8.132063 -2.064724 -8.686131 -2.902527 -0.210090 -0.376292 0.000000 0.000000 0.000000 -4.744567 15.876441 2.998123 -44.475182 12.601543 0.923933 -5.477619 -0.986097 -0.022364 4.649581 7.182534 0.300296 -0.156941 0.026611 -0.000000 0.000000 0.000000 0.000000 0.000000 0.000000 0.000000 10.008918 6.158787 0.931653 53.831437 33.966527 22.727981 0.925865 66.564285 -0.012389 -2.728269 7.945598 -0.202185 0.044139 -0.447664 0.000000 0.000000 0.000000 0.000000 0.000000 0.000000 0.000000 
24.659001 16.016744 1.975360 156.123385 -81.678563 -144.162348 -9.085491 0.138155 2.360708 -15.274393 -2.695366 -45.311034 -1.216577 2.090173 51.073362 2.435328 9.426412 -19.962087 -2.248500 -0.000000 -15.869200 11.873551 -5.005473 0.049806 -3.891340 -7.270674 1.803498 -0.150416 -3.178937 40.369159 -0.030151 11.557829 18.518088 5.095400 0.000000 -82.212200 -9.403088 1.930011 -4.034975 -2.803936 2.496469 -4.143111 -5.969794 2.365514 -0.845652 8.295568 -1.864202 -8.630739 -3.034398 -0.220490 -0.372877 0.000000 0.000000 0.000000 -5.050476 15.497327 3.071767 -45.364877 11.186411 0.393591 -5.408664 -1.240831 -0.023079 5.139229 7.524059 0.345522 -0.145707 0.038879 -0.000000 0.000000 0.000000 0.000000 0.000000 0.000000 0.000000 10.637911 6.388753 0.936010 55.040280 32.229953 22.499885 0.980432 65.351337 -0.012109 -2.805666 8.044978 -0.210370 0.046555 -0.438799 -0.000000 0.000000 0.000000 0.000000 0.000000 0.000000 0.000000 
24.497738 16.014656 1.990803 154.190212 -81.603250 -142.524678 -8.968700 0.258469 2.233434 -15.921892 -2.608344 -44.160822 -1.270677 2.058950 51.189083 2.481286 9.475993 -20.792201 -2.451099 -0.000000 -15.777800 12.170236 -4.859017 -0.090365 -4.668580 -7.919192 0.012337 -0.396649 -3.363808 44.151809 -0.275967 10.433009 19.942304 4.971200 -0.000000 -78.447000 -9.536823 1.847677 -3.741778 -2.840040 2.424251 -4.111871 -6.086170 2.292447 -0.943875 8.450544 -1.666076 -8.554624 -3.167113 -0.231085 -0.363892 0.000000 0.000000 0.000000 -5.387901 15.066320 3.131212 -46.252293 9.734658 -0.181295 -5.343463 -1.599115 -0.022526 5.465953 7.446588 0.362060 -0.135528 0.047532 -0.000000 0.000000 0.000000 0.000000 0.000000 0.000000 0.000000 11.269762 6.585390 0.940415 56.309878 30.451194 22.091039 1.038980 63.920003 -0.011585 -2.833521 8.190693 -0.215867 0.047428 -0.428992 -0.000000 0.000000 0.000000 0.000000 0.000000 0.000000 0.000000 
